<svg xmlns="http://www.w3.org/2000/svg" width="51" height="51" viewBox="0 0 51 51" fill="none"><path d="M50.0478 40.15L48.9085 46.9859C48.5933 48.8772 46.9728 50.25 45.0554 50.25H31.0586C30.2496 50.25 29.5938 49.5941 29.5938 48.7852V37.0664C29.5938 36.2509 30.2602 35.591 31.0781 35.6017C32.4188 35.6191 33.5 34.501 33.5 33.1602V31.207C33.5 29.3193 35.0303 27.7891 36.918 27.7891C39.0753 27.7891 40.8242 29.538 40.8242 31.6953V35.6016H46.1318C47.1329 35.6016 48.1109 35.9571 48.845 36.6377C49.8221 37.5435 50.263 38.8593 50.0478 40.15ZM16.7031 30.2305C16.7031 26.7304 13.8557 23.8828 10.3555 23.8828C6.85527 23.8828 4.00781 26.7304 4.00781 30.2305C4.00781 33.7306 6.85527 36.5781 10.3555 36.5781C13.8557 36.5781 16.7031 33.7306 16.7031 30.2305Z" fill="url(#paint0_linear_829_4486)"></path><path d="M35.2924 12.611C34.8931 12.2219 34.7493 11.6397 34.9217 11.1095C35.0939 10.5792 35.5523 10.1927 36.1041 10.1125L39.5991 9.60469L41.1621 6.4377C41.4089 5.9377 41.9181 5.62119 42.4757 5.62119C43.0333 5.62119 43.5425 5.93779 43.7893 6.4377L45.3522 9.60469L48.8473 10.1125C49.399 10.1927 49.8575 10.5792 50.0297 11.1095C50.2021 11.6397 50.0583 12.2219 49.659 12.611L47.1301 15.0762L47.7271 18.557C47.8213 19.1065 47.5953 19.662 47.1442 19.9897C46.8892 20.1751 46.5868 20.2695 46.2831 20.2695C46.0499 20.2695 45.816 20.214 45.6016 20.1013L42.4756 18.4578L39.3496 20.1013C38.8558 20.3608 38.258 20.3174 37.8069 19.9897C37.3559 19.662 37.1299 19.1066 37.2241 18.557L37.8211 15.0762L35.2924 12.611ZM14.0989 10.1125L10.6039 9.60469L9.04092 6.4377C8.79414 5.9377 8.28496 5.62109 7.72734 5.62109C7.16973 5.62109 6.66055 5.9377 6.41377 6.4376L4.85078 9.60459L1.35576 10.1124C0.804004 10.1926 0.345508 10.5791 0.17334 11.1094C0.000976562 11.6396 0.144727 12.2218 0.544043 12.6109L3.07295 15.0761L2.47598 18.5569C2.38174 19.1064 2.60771 19.6619 3.05879 19.9896C3.50977 20.3173 4.10771 20.3606 4.60146 20.1012L7.72744 18.4577L10.8534 20.1012C11.0678 20.2139 11.3018 20.2694 11.535 20.2694C11.8387 20.2694 12.141 20.1751 12.3961 19.9896C12.8472 19.6619 13.0731 19.1065 12.9789 18.5569L12.3819 15.0761L14.9108 12.6109C15.3102 12.2218 15.4539 11.6396 15.2815 11.1094C15.1092 10.5792 14.6508 10.1927 14.0989 10.1125ZM30.3529 13.1859L29.756 9.70508L32.2849 7.23994C32.6842 6.85078 32.8279 6.26865 32.6556 5.73838C32.4833 5.20811 32.0249 4.82158 31.4731 4.74141L27.9781 4.23359L26.4151 1.0666C26.1684 0.566602 25.6592 0.25 25.1016 0.25C24.5439 0.25 24.0348 0.566602 23.788 1.0665L22.225 4.2335L18.73 4.74131C18.1782 4.82148 17.7197 5.20801 17.5476 5.73828C17.3752 6.26855 17.5189 6.85068 17.9183 7.23984L20.4472 9.70498L19.8502 13.1858C19.756 13.7354 19.9819 14.2908 20.433 14.6186C20.884 14.9462 21.4818 14.9896 21.9757 14.7301L25.1016 13.0867L28.2275 14.7302C28.4419 14.8429 28.6759 14.8984 28.9091 14.8984C29.2128 14.8984 29.5151 14.8041 29.7702 14.6187C30.2213 14.2909 30.4472 13.7355 30.3529 13.1859ZM20.6094 44.8789V48.7852C20.6094 49.5941 19.9535 50.25 19.1445 50.25H1.56641C0.757422 50.25 0.101562 49.5941 0.101562 48.7852V44.8789C0.101562 40.5524 2.79492 36.8433 6.59297 35.3399C7.64658 36.1179 8.94824 36.5781 10.3555 36.5781C11.7627 36.5781 13.0644 36.1179 14.118 35.3399C17.916 36.8433 20.6094 40.5524 20.6094 44.8789ZM25.1992 35.6016C24.3902 35.6016 23.7344 36.2574 23.7344 37.0664V48.7852C23.7344 49.5941 24.3902 50.25 25.1992 50.25H31.0586V35.6016H25.1992Z" fill="url(#paint1_linear_829_4486)"></path><defs><linearGradient id="paint0_linear_829_4486" x1="30.5" y1="13" x2="31" y2="61.5" gradientUnits="userSpaceOnUse"><stop stop-color="white"></stop><stop offset="1" stop-color="#FF9F79"></stop></linearGradient><linearGradient id="paint1_linear_829_4486" x1="2.5" y1="-3.5" x2="41" y2="79.5" gradientUnits="userSpaceOnUse"><stop stop-color="white"></stop><stop offset="1" stop-color="#FFCDBA"></stop></linearGradient></defs></svg>